<svg version="1.2" xmlns="http://www.w3.org/2000/svg" viewBox="0 0 600 100" width="600" height="100"><style>.a{opacity:.92;fill:#03438a}.b{opacity:.95;fill:#d60202}</style><path fill-rule="evenodd" class="a" d="m495 26c7.7 0 16.1 0.4 18.8 1 2.6 0.5 6.5 2.2 8.7 3.8 2.4 1.6 5 4.8 6.5 7.7 2.1 4.3 2.5 6.3 2.4 14 0 7.1-0.4 9.9-2.1 13-1.1 2.2-3.7 5.5-5.7 7.3-2 1.7-5.3 3.6-7.3 4.2-2.1 0.5-7.7 1-21.3 1l-0.1 2.8c0 1.5-0.1 5.6-0.4 15.7h-14l-0.1-34c-0.1-18.7 0-34.6 0.2-35.2 0.3-1 4-1.3 14.4-1.3zm0 40c12.1 0 15.3-0.5 16.8-1.5 1.2-0.8 2.9-2.8 3.7-4.5 0.8-1.6 1.5-5.2 1.5-8 0-2.7-0.7-6.3-1.5-8-0.8-1.7-3-3.7-5-4.5-1.9-0.8-6.2-1.5-9.5-1.5h-6z"/><path fill-rule="evenodd" class="b" d="m24.8 2.2c5-0.1 15.8 0.3 23.9 0.9 8.2 0.6 17.3 1.4 20.3 1.7 5.4 0.7 5.4 0.7 6.7 5.2 0.7 2.5 2 9.7 2.8 16 0.9 6.3 1.4 16.5 1 33.5l-22-0.1c-13.5-0.1-27.2-0.8-35.5-1.8-7.9-1-13.8-2.2-14.2-2.9-0.4-0.7-1.3-3.7-2-6.7-0.7-3.2-1.2-12.6-1.2-22.5 0-9.4 0.3-18.2 0.7-19.8 0.6-2.4 1.2-2.7 5.4-3 2.7-0.2 9-0.4 14-0.5zm-12.8 22c2.2 6.1 3.6 11.9 4 17.1 0.3 4.2 1 7.7 1.6 7.7 0.6 0 5-0.7 10-1.5 5-0.8 14.4-2.1 21-3 6.6-0.9 14.9-1.8 18.5-2.1 3.6-0.3 7.3-0.7 8.3-0.9 1.5-0.4 1.1-1.6-2.7-8.8-2.5-4.5-4.9-10.1-5.3-12.5l-0.8-4.2c-40.3 0-53.4-0.2-55-0.5l-3-0.6z"/><path fill-rule="evenodd" class="a" d="m84.9 8h60.1v13h-22v57h-16l0.1-4.3c0.1-2.3 0.1-15.1-0.1-52.7l-21.5-0.5zm497.1 0h14v13h-14zm-244 17.7c2.5 0.3 6.9 1.6 9.7 2.9 3.2 1.4 6.4 3.9 8 6.1 1.6 2.1 3.3 5.3 4 7.3 0.7 1.9 1.2 6.7 1.2 10.5 0 4.9-0.5 8.3-2 11.5-1.1 2.5-3.5 6-5.2 7.8-1.8 1.8-5.6 4.2-8.5 5.2-2.9 1.1-7.7 2-11 2-3.1 0-8-0.7-10.7-1.5-2.8-0.8-6.5-2.6-8.3-4-1.7-1.4-4.4-5.1-5.9-8.2-2.3-4.8-2.8-7.1-2.7-13.3 0.1-4.4 0.7-9 1.6-11 0.9-1.9 2.9-5 4.4-6.9 1.6-1.8 4.7-4.3 6.9-5.4 2.2-1.1 6.2-2.3 9-2.7 2.7-0.4 7-0.5 9.5-0.3zm-14.3 16.5c-0.9 1.3-2 4.6-2.3 7.3-0.4 2.8-0.2 6.6 0.4 8.5 0.6 1.9 2.4 4.7 4.1 6.3 2.4 2.1 4.1 2.7 7.8 2.7 3.2 0.1 5.6-0.6 7.3-1.8 1.4-1 3.1-3.2 3.8-4.8 0.8-1.8 1.2-5.5 1-9.6-0.3-5.9-0.7-7.1-3.3-9.8-2.1-2.1-4.3-3.2-7-3.5-2.4-0.3-5.3 0.1-7.1 0.9-1.7 0.8-3.8 2.5-4.7 3.8zm-132.2-15.7l0.5 10.5-12.5 0.3c-11.8 0.2-12.6 0.3-14.9 2.7-1.4 1.4-2.6 3.4-2.8 4.5-0.3 1.9 0.3 2 30.2 2.5l-0.5 10.5-30.5 0.5 0.6 2.3c0.3 1.2 1.5 3.1 2.5 4.2 1.7 1.7 3.6 2.1 27.4 3l0.5 10.5h-13.3c-7.7 0-14.8-0.5-17.1-1.3-2.1-0.6-5.4-2.5-7.4-4.2-1.9-1.7-4.4-4.8-5.6-7-1.6-3.2-2.1-5.8-2.1-13 0-7.8 0.4-9.8 2.6-14 1.4-2.9 4.2-6.2 6.5-7.8 2.1-1.5 5.9-3.1 8.4-3.6 2.5-0.5 9.7-0.8 27.5-0.6zm51.5-0.5v12h-10q-10 0-13.5 1.5c-2.1 0.9-4.2 2.8-5.1 4.8-1.2 2.2-1.5 5.1-1.3 9.5 0.4 5.7 0.7 6.7 3.6 9.3 3.2 2.9 3.5 2.9 26.3 2.9v12l-14.3-0.3c-12.2-0.2-14.8-0.5-18.2-2.4-2.2-1.1-5-3.2-6.2-4.5-1.2-1.2-3.1-4.3-4.2-6.8q-2.1-4.5-2.1-11c0-3.6 0.6-8.4 1.5-10.7 0.8-2.4 2.3-5.7 3.3-7.4 1-1.9 3.4-3.9 6.2-5.1 2.5-1.1 6.3-2.4 8.5-2.8 2.2-0.4 8.8-0.8 25.5-1zm9.2-0.2l16.7 0.4c14.4 0.4 17.2 0.7 21.3 2.6 3.7 1.7 5.2 3.1 6.8 6.5 1.7 3.7 2 6.4 2 42.7h-14v-17.3c0.1-15.6-0.1-17.4-1.9-19.7-1.7-2.2-2.8-2.5-17.1-3v40h-14zm161.3 0.7l0.5 10.5h-14.3c-11 0-14.7 0.4-16.5 1.5-1.2 0.9-2.2 2.3-2.3 3.3 0 0.9 0.6 2.3 1.3 3 0.8 0.8 4.3 1.3 10 1.2 4.8 0 10.9 0.6 13.4 1.3 3.2 0.8 5.6 2.4 7.6 4.7 2.9 3.3 3 3.9 2.6 10.7-0.3 5.9-0.8 7.6-2.8 9.9-1.4 1.5-4 3.3-5.8 4.1-2.3 1-8.2 1.3-39.2 1.3v-11h15.8c11.3 0 16.1-0.3 17-1.2 0.6-0.7 1.2-2.5 1.2-4 0-1.6-0.7-3-1.5-3.3-0.9-0.2-4.8-0.5-8.8-0.5-4 0-9.7-0.4-12.7-1-3.9-0.7-6.4-1.9-8.5-4-2.7-2.7-3.1-3.8-3.4-9.7-0.3-5.8 0-7.3 2-10.3 1.7-2.4 3.9-4 7.4-5.2 4-1.4 8-1.7 37-1.3zm10.4-0.6l13.6 0.6 0.3 18c0.2 15.4 0.5 18.3 2 19.8 1.3 1.4 3.3 1.8 17.2 1.7v-40l13.5 0.5 0.5 51.5h-16.8c-13.9 0-17.4-0.3-20.7-1.8-2.2-1-5.2-3.3-6.5-5.2-2.5-3.4-2.5-3.9-2.8-24.3zm122.7 0.1c3.5 0 6.5 0.4 6.8 0.8 0.2 0.4 2.1 0.3 4.2-0.2 2.1-0.5 5.5-0.6 7.6-0.2 2 0.3 5 1.7 6.5 3 2.5 2.3 2.7 3.1 3.2 18.6h-13v-3.5c0-1.9-0.4-4.4-1-5.5-0.6-1.2-2-2-3.7-2-2.3 0-2.9 0.5-3.5 3.3-0.5 1.8-0.8 11-0.8 37.7h-14l-0.1-25.3c-0.1-13.9 0.2-25.6 0.6-26 0.5-0.4 3.7-0.7 7.2-0.7zm35.3 0h14v52h-14zm-573.1 34.4c1.5 0.3 6.4 1.1 11.1 1.7 4.7 0.7 19.5 1.5 57.5 2.4l-16 6.4c-8.8 3.5-24.7 10.2-35.3 15-16.2 7.2-19.5 8.4-20.2 7.1-0.5-0.8-0.9-7.5-0.9-15-0.1-7.4 0.2-14.5 0.6-15.8 0.5-1.8 1.2-2.2 3.2-1.8z"/></svg>