<svg version="1.2" xmlns="http://www.w3.org/2000/svg" viewBox="0 0 55 67" width="55" height="67"><style>.a{opacity:.92;fill:#d00}.b{opacity:.98;fill:#049}</style><path fill-rule="evenodd" class="a" d="m11.3 0.1c3.7 0 13.6 0.4 21.9 1 8.4 0.6 15.7 1.3 16.1 1.7 0.4 0.4 1.4 3.4 2.2 6.7 0.8 3.3 1.8 11.8 3 31.8l-20.5-0.6c-11.3-0.4-22.9-1-25.9-1.4-3.8-0.6-5.6-1.4-6.4-2.8-0.7-1.2-1.3-8.8-1.4-18.8-0.3-16.6-0.3-16.7 1.9-17.1 1.3-0.2 5.3-0.4 9-0.5zm-5.7 17.4c1.3 3.9 2.5 9 2.5 11.5v4.5c25.2-3.4 35.1-4.6 38.3-4.9l5.7-0.6c-3.9-6.2-5.7-10.2-6.5-13l-1.5-5c-31.8 0-41 0.1-41 0.3 0 0.1 1.1 3.4 2.5 7.2z"/><path class="b" d="m0.4 42.7c-0.2 0.7-0.4 6.3-0.4 12.3 0 8.4 0.3 10.9 1.3 10.6 0.6-0.2 8.4-3.5 17.2-7.3 8.8-3.8 20-8.5 25-10.4l9-3.4c-30.2-1-41.9-1.7-45.4-2.2-5-0.8-6.4-0.7-6.7 0.4z"/></svg>